<?xml version="1.0" encoding="utf-8"?>
<!-- Generator: Adobe Illustrator 26.4.1, SVG Export Plug-In . SVG Version: 6.00 Build 0)  -->
<svg version="1.0" id="katman_1" xmlns="http://www.w3.org/2000/svg" xmlns:xlink="http://www.w3.org/1999/xlink" x="0px" y="0px"
	 viewBox="0 0 841.89 595.28" style="enable-background:new 0 0 841.89 595.28;" xml:space="preserve">
<style type="text/css">
	.st0{fill-rule:evenodd;clip-rule:evenodd;fill:#79777B;}
	.st1{fill:#025B9C;}
	.st2{fill:#FFFFFF;}
	.st3{fill-rule:evenodd;clip-rule:evenodd;fill:#EC6427;}
</style>
<g>
	<path class="st0" d="M215.76,81.14h409.86c16.95,0,30.85,13.83,30.85,30.79v204.91l-471.54,0.08V111.92
		C184.94,94.97,198.84,81.14,215.76,81.14"/>
	<path class="st1" d="M420.7,128.29c-104.69,0-188.61,31.4-188.61,70.72c0,39.13,84.62,70.75,188.61,70.75
		c104.03,0,188.65-31.72,188.65-70.75C609.34,160.02,524.72,128.29,420.7,128.29"/>
	<path class="st2" d="M531.53,178.73c0.23-0.44-0.02-0.73-0.58-0.73h-9.51c-0.69,0-1.1,0.09-1.41,0.73
		c-1.09,2.12-14.41,22.06-16.87,25.94c-0.45,0.57-0.96,0.52-1.01-0.16c-0.23-2.31-2.25-4.97-5.37-6.22
		c-2.39-0.97-4.73-1.11-7.16-0.8c-4.37,0.57-8.28,2.89-11.72,5.48c-5.16,3.95-9.63,9.03-15.41,12.8c-3.14,2.03-7.44,3.84-10.33,1.14
		c-2.61-2.39-2.31-7.76,1.69-11.94c0.43-0.39,0.92-0.05,0.85,0.36c-0.38,1.88,0.1,3.73,1.51,5.04c1.74,1.59,4.22,1.73,6.35,0.71
		c2.53-1.24,4-3.66,4.44-6.41c0.66-4.23-2.6-7.99-6.69-8.26c-3.28-0.25-6.49,0.91-9.59,3.48c-1.55,1.27-2.43,2.23-3.76,4.15
		c-0.33,0.47-0.83,0.52-0.82-0.18c0.15-5.42-2.12-8.49-6.6-8.59c-3.47-0.09-7.19,1.81-10.09,4.12c-3.18,2.55-5.96,5.96-8.93,9.11
		c-0.38,0.38-0.71,0.38-0.79-0.38c-0.09-3.58-1.02-7.07-2.65-9.56c-0.61-0.87-1.84-1.27-2.89-0.67c-0.49,0.26-2.16,0.99-3.36,1.99
		c-0.62,0.5-0.85,1.21-0.6,2.14c1.62,5.37,1.24,11.48-0.92,16.64c-2.01,4.71-5.88,8.98-10.44,10.42c-3.03,0.95-6.15,0.5-8.07-2.18
		c-2.67-3.67-1.61-10.1,2.35-15.42c3.51-4.68,8.58-7.65,13.61-9.57c0.62-0.21,0.73-0.61,0.55-1.1c-0.26-0.82-0.71-1.98-0.87-2.5
		c-0.48-1.24-1.77-1.41-3.36-1.27c-3.66,0.47-6.98,1.71-10.24,3.45c-8.57,4.59-12.85,13.48-14.72,18.21c-0.9,2.3-1.7,3.71-2.69,4.97
		c-1.34,1.73-3.06,3.24-6.14,5.94c-0.26,0.27-0.5,0.77-0.24,1.28c0.3,0.66,1.93,2.9,2.37,3.12c0.5,0.26,1.1-0.09,1.32-0.27
		c2.16-1.44,4.75-3.79,6.04-5.37c0.44-0.53,0.89-0.31,1.14,0.5c1.2,4.23,4.27,7.69,8.58,9.14c7.85,2.66,15.99-1.2,22.13-7.86
		c3.9-4.25,5.3-6.99,6.8-8.85c2.55-3.14,7.53-10.16,13.53-14.67c2.18-1.68,4.77-2.95,6.07-2.08c1.02,0.66,1.36,2.24-0.31,5.29
		c-6.08,11.1-15,24.13-16.65,27.3c-0.3,0.53-0.03,0.97,0.53,0.97c3.19-0.01,6.33-0.01,9.23-0.01c0.47-0.01,0.69-0.25,0.91-0.6
		c4.67-7.28,9.08-14.24,13.77-21.43c0.27-0.44,0.54-0.09,0.54,0.09c0.09,1.67,0.48,3.96,1.47,5.45c1.78,2.74,4.31,3.95,7.1,3.96
		c2.23,0.03,3.36-0.31,5.75-1.22c1.96-0.7,3.53-1.64,4.71-2.52c0.71-0.48,0.83,0.32,0.82,0.46c-1.09,5.78,0.27,12.69,6,15.49
		c6.91,3.42,14.49-1.34,18.84-5.67c0.42-0.41,0.89-0.36,0.94,0.53c0.07,1.65,0.83,3.6,2.19,4.96c3.65,3.65,11.02,2.22,18.44-3.51
		c4.75-3.66,9.68-8.85,14.18-14.31c0.18-0.24,0.29-0.56-0.02-0.91c-0.68-0.73-1.67-1.54-2.37-2.17c-0.3-0.27-0.74-0.19-1.03,0.01
		c-4.59,4.37-8.72,9.38-14.72,13.5c-2.01,1.4-5.2,2.55-6.66,0.59c-0.58-0.78-0.5-1.82,0.06-3.21
		C502.47,223.28,530.07,181.23,531.53,178.73 M495.01,214.01c0.05,0.32,0.46,0.63,0.89,0.79c0.14,0.05,0.21,0.14,0.05,0.5
		c-1.18,2.49-2.25,3.96-3.72,6.17c-1.37,2.01-2.89,3.6-4.73,5.1c-2.78,2.31-6.66,4.82-9.86,3.13c-1.43-0.73-2.03-2.7-2.01-4.34
		c0.06-4.52,2.07-9.16,5.81-13.74c4.53-5.58,9.52-8.49,12.82-6.88c3.39,1.61,2.32,5.54,0.81,8.65
		C494.95,213.62,494.95,213.82,495.01,214.01"/>
	<path class="st2" d="M331.14,237.95c-10.32,0.09-19.4-6.28-20.44-17.32c-0.55-6.1,1.17-11.53,4.61-16.03
		c3.07-4.01,8.27-7.31,12.64-8.1c1.43-0.27,3.35-0.11,4.18,0.83c1.24,1.46,0.88,3.05-0.35,3.67c-3.38,1.72-7.43,4.65-9.41,8.65
		c-1.62,3.25-1.93,7.19,0.55,10.94c4.12,6.26,15.66,6.41,26.37-3.56c2.66-2.4,5.03-4.77,7.45-7.53c4.73-5.4,6.28-7.38,12.58-16.07
		c0.08-0.11,0.11-0.25,0.08-0.3c-0.08-0.14-0.16-0.15-0.32-0.15c-4.2,0.11-7.86,1.38-11.42,4.02c-1.02,0.72-2.5,0.63-3.12-0.35
		c-0.73-1.11-0.21-2.56,0.97-3.36c5.7-3.97,11.94-4.71,18.32-5.78c0,0,0.43,0.02,0.81-0.48c2.61-3.33,4.59-6.37,7.37-9.76
		c2.81-3.46,6.44-6.6,9.21-8.99c3.86-3.33,6.36-4.44,8.87-5.83c0.7-0.33-0.07-0.73-0.26-0.73c-14.1-2.67-28.74-6.1-42.75-0.91
		c-9.67,3.58-13.91,11.28-11.89,16.42c1.46,3.65,6.25,4.22,10.73,2.04c3.73-1.84,7.18-4.78,9.62-8.56c1.37-2.11,4.24-0.6,2.69,3.06
		c-4.1,9.62-11.91,17.26-21.43,17.58c-8.11,0.26-13.35-5.7-13.32-13.07c0.03-14.51,16.17-24.06,33.16-25.49
		c20.45-1.67,39.8,3.75,60.1,6.23c15.55,1.89,30.48,1.93,46.1-1.68c1.84-0.42,3.16,0.8,3.04,2.67c-0.16,2.69-2.25,5.28-7.41,8.08
		c-5.84,3.22-11.97,4.19-18.37,4.25c-15.46,0.13-29.88-5.9-44.79-9.17c0,0.66,0.19,1.46-0.36,1.85
		c-8.26,6.12-15.72,12.29-20.75,20.99c-0.16,0.19-0.06,0.38,0.24,0.38c4.37-0.26,8.24-0.35,12.3-0.68c0.69-0.05,0.73-0.24,0.67-0.74
		c-0.34-3.01,0.51-6.41,3.13-8.77c2.72-2.43,6.08-2.68,8.32-0.94c2.55,1.97,2.33,5.56,0.92,8.22c-1.4,2.7-3.76,4.15-5.99,4.85
		c0,0-0.48,0.11-0.39,0.52c0.08,0.73,3.13,2.42,3.38,2.86c0.28,0.42,0.14,1.1-0.32,1.6c-0.31,0.4-0.84,0.72-1.49,0.72
		c-0.52,0-0.85-0.2-1.49-0.55c-1.39-0.75-3.11-2-4.24-3.42c-0.41-0.47-0.61-0.47-1.59-0.44c-4.38,0.26-11.23,0.9-15.85,1.5
		c-1.11,0.14-1.31,0.34-1.54,0.73c-7.38,12.19-15.28,25.32-23.93,34.12C347.06,235.42,339.31,237.89,331.14,237.95 M401.53,183.82
		c0.14,0.61,0.38,0.74,0.64,0.69c1.43-0.31,2.96-1.44,3.88-2.78c0.82-1.2,1.21-2.97,0.38-3.68c-0.74-0.63-1.93-0.47-2.81,0.35
		C401.85,179.97,401.32,182.16,401.53,183.82"/>
	<path class="st2" d="M420.7,263.62c-99.82,0-180.75-28.92-180.75-64.56c0-35.66,80.93-64.56,180.75-64.56
		c99.82,0,180.74,28.9,180.74,64.56C601.44,234.7,520.51,263.62,420.7,263.62 M420.7,139.85c-96.32,0-174.4,26.62-174.4,59.21
		c0,32.56,78.09,59.17,174.4,59.17c96.33,0,174.41-26.61,174.41-59.17C595.11,166.47,517.02,139.85,420.7,139.85"/>
	<path class="st3" d="M625.64,513.43H215.78c-16.98,0-30.85-13.83-30.85-30.77V324.85l471.55-0.08v157.9
		C656.48,499.6,642.57,513.43,625.64,513.43"/>
	<polygon class="st2" points="289.81,400.13 273.33,400.13 273.33,388.29 319.45,388.29 319.45,400.13 302.9,400.13 302.9,449.64 
		289.81,449.64 	"/>
	<path class="st2" d="M346.03,429.11h-8.11v20.53h-12.75v-61.35h23.43c14.74,0,20.2,7.11,20.2,19.54c0,9.03-2.9,16.23-10.26,19.46
		l9.85,22.35H354.8L346.03,429.11z M348.26,417.77c5.64,0,7.86-2.48,7.86-9.03c0-6.63-2.23-9.03-7.86-9.03h-10.35v18.05H348.26z"/>
	<path class="st2" d="M375.58,428.12v-39.84h13v38.59c0,8.37,1.99,12.01,10.44,12.01c8.28,0,10.51-3.39,10.51-12.01v-38.59h12.6
		v39.84c0,14.57-5.55,22.43-23.28,22.43C381.38,450.56,375.58,442.69,375.58,428.12"/>
	<path class="st2" d="M428.32,419.01c0-18.63,4.72-31.46,25.58-31.46c6.46,0,12.26,1.57,16.64,4.47l-6.95,10.76
		c-2.49-1.57-5.88-2.56-10.1-2.56c-8.53,0-12.01,4.06-12.01,19.13c0,14.82,3.31,19.38,12.08,19.38c4.4,0,7.38-0.91,10.85-3.15
		l6.38,10.03c-4.88,3.06-9.68,4.79-17.88,4.79C433.78,450.39,428.32,438.22,428.32,419.01"/>
	<polygon class="st2" points="477.58,388.29 490.42,388.29 490.42,413.55 509.13,388.29 524.03,388.29 505.57,412.14 524.36,449.64 
		510.04,449.64 496.87,423.07 490.42,431.93 490.42,449.64 477.58,449.64 	"/>
	<path class="st2" d="M524.27,444.84l6.54-9.93c3.4,2.15,9.11,4.38,16.32,4.38c7.04,0,9.35-2.23,9.35-6.29
		c0-5.39-2.82-6.21-12.83-9.36c-11.26-3.47-16.64-8.03-16.64-18.04c0-12.01,7.62-18.05,21.2-18.05c8.53,0,13.91,1.49,18.8,3.8
		l-5.64,11.09c-2.9-1.4-7.03-2.72-12.84-2.72c-6.21,0-8.86,1.57-8.86,5.47c0,4.22,2.4,5.21,9.77,7.62
		c14.65,4.72,19.62,7.94,19.62,19.96c0,10.85-6.63,17.63-21.61,17.63C537.28,450.39,529.82,448.5,524.27,444.84"/>
</g>
</svg>
