<?xml version="1.0" encoding="utf-8"?>
<!-- Generator: Adobe Illustrator 28.2.0, SVG Export Plug-In . SVG Version: 6.00 Build 0)  -->
<svg version="1.0" id="katman_1" xmlns="http://www.w3.org/2000/svg" xmlns:xlink="http://www.w3.org/1999/xlink" x="0px" y="0px"
	 viewBox="0 0 841.9 595.3" style="enable-background:new 0 0 841.9 595.3;" xml:space="preserve">
<style type="text/css">
	.st0{fill:#A2A3A6;}
</style>
<g>
	<path class="st0" d="M750.3,266.4c0.2-1.3-0.3-2.7-1.2-3.6c-0.6-0.7-1.5-1.1-2.4-1.2h-6v12.1h2.4v-4.8h2.4l2.4,4.8h2.4l-2.4-4.8
		C749.2,268.7,750.2,267.7,750.3,266.4z M746.7,267.6h-2.4V264h2.4l1.2,1.2C747.9,267.6,747.9,267.6,746.7,267.6z"/>
	<path class="st0" d="M745.5,255.5c-7.3,0-13.3,5.9-13.3,13.3s5.9,13.3,13.3,13.3c7.3,0,13.3-5.9,13.3-13.3l0,0
		C758.7,261.5,752.8,255.6,745.5,255.5z M745.5,279.7c-5.5-0.1-9.8-4.6-9.7-10.1c0-0.3,0-0.5,0-0.8c-0.2-5.6,4.1-10.4,9.7-10.9
		c5.5,0.1,9.8,4.6,9.7,10.1c0,0.3,0,0.5,0,0.8c0.5,5.4-3.4,10.3-8.9,10.8C746,279.6,745.7,279.7,745.5,279.7z M508.9,283.3
		c6.6-0.2,13.1-1.5,19.3-3.6l3.6-24.1c-5.5,3.3-11.7,5.3-18.1,6c-13.3,0-20.5-9.7-20.5-26.6c0-24.1,12.1-39.8,27.8-39.8
		c6.9-0.1,13.7,2,19.3,6l3.6-22.9l-4.8-2.4l-9.7-2.4c-3.1-1.1-6.4-1.5-9.7-1.2c-29,0-49.5,26.6-49.5,65.2
		C471.5,266.4,486,283.3,508.9,283.3z M464.3,219.3c1.7-8.8,4.5-17.3,8.4-25.3h-3.6c-7.2,0-10.9,3.6-18.1,14.5l2.4-13.3h-19.3
		l-13.3,88.1h21.7c8.4-53.1,9.7-62.8,20.5-62.8C463.1,219.3,463.1,219.3,464.3,219.3z M324.3,283.3c5.3-0.3,10.5-1.1,15.7-2.4
		l2.4-19.3c-2,0.5-4,0.9-6,1.2c-4.8,0-7.2-2.4-7.2-6v-3.6l6-36.2H346l3.6-21.7h-10.9l2.4-13.3h-21.7l-9.7,60.3l-1.2,7.2l-1.2,8.4
		c0,2.4-1.2,4.8-1.2,8.4c-0.1,9.3,7.3,16.9,16.6,16.9C323.3,283.3,323.8,283.3,324.3,283.3z M267.6,264c-6.6-0.1-13.1-1.4-19.3-3.6
		l-3.6,20.5h1.2l3.6,1.2c2.1-0.1,4.1,0.3,6,1.2c4.8,0,9.7,1.2,12.1,1.2c22.9,0,33.8-9.7,33.8-29c0.7-10.6-5.7-20.4-15.7-24.1
		c-9.7-4.8-9.7-4.8-9.7-9.7s3.6-7.2,10.9-7.2c5.3-0.2,10.5,0.2,15.7,1.2l3.6-20.5c-6.4-1-12.9-1.4-19.3-1.2
		c-24.1,0-32.6,13.3-32.6,30.2c-0.5,10.9,6.4,20.9,16.9,24.1c8.4,4.8,10.9,6,10.9,9.7C282.1,261.6,277.2,264,267.6,264z
		 M680.3,283.3c8,0.4,15.7-3.2,20.5-9.7l-1.2,8.4h20.5L737,174.7h-21.7l-4.8,31.4c-4.2-7.3-12-11.9-20.5-12.1
		c-19.3,0-36.2,24.1-36.2,54.3C652.6,268.8,663.4,283.3,680.3,283.3z M693.6,214.5c7.2,0,12.1,6,12.1,16.9c0,16.9-7.2,29-16.9,29
		c-7.2,0-10.9-6-10.9-16.9C675.5,226.6,682.7,214.5,693.6,214.5z M387,283.3c7.8-0.1,15.5-1.3,22.9-3.6l3.6-21.7
		c-7.1,3.7-14.9,5.7-22.9,6c-13.3,0-19.3-4.8-19.3-15.7v-2.4h43.4c1.9-7.1,2.7-14.4,2.4-21.7c1.4-15.9-10.3-29.9-26.2-31.3
		c-1.3-0.1-2.7-0.1-4-0.1c-21.7,0-38.6,21.7-38.6,51.9C349.6,270,362.9,283.3,387,283.3z M387,212.1c5.6-0.4,10.4,3.8,10.9,9.4
		c0,0.5,0,1,0,1.5v4.8h-24.1C375,216.9,379.8,212.1,387,212.1z M110.7,198.8l2.4,83.3h14.5l29-83.3l-13.3,83.3H165l18.1-108.6h-35
		L126.4,241v-67.6H95L76.9,282.1h20.5L110.7,198.8z M215.7,225.4c-24.1,0-38.6,12.1-38.6,33.8c-1.5,11.7,6.7,22.4,18.4,24
		c0.7,0.1,1.4,0.2,2.1,0.2c8.9,0.2,17.5-3.8,22.9-10.9v9.7h18.1v-10.9l1.2-6l4.8-31.4c0.8-5.6,1.2-11.2,1.2-16.9
		c0-16.9-9.7-25.3-29-25.3c-9.1,0-18.1,1.7-26.6,4.8l-3.6,19.3h2.4l3.6-1.2c5.9-1.5,12-2.3,18.1-2.4c10.9,0,14.5,2.4,14.5,8.4
		c0,2.1-0.4,4.1-1.2,6C221.4,225.6,218.5,225.2,215.7,225.4z M206,265.2c-4.5,0.1-8.3-3.4-8.4-8c0-0.2,0-0.3,0-0.5
		c0-8.4,6-13.3,19.3-13.3h4.8C221.7,255.5,215.7,265.2,206,265.2z M576.5,225.4c-24.1,0-38.6,12.1-38.6,33.8
		c-1.5,11.7,6.7,22.4,18.4,24c0.7,0.1,1.4,0.2,2.1,0.2c8.9,0.2,17.5-3.8,22.9-10.9v9.7h18.1v-6l1.2-4.8l1.2-6l4.8-31.4
		c0.8-5.6,1.2-11.2,1.2-16.9c0-16.9-9.7-25.3-29-25.3c-9.1,0-18.1,1.7-26.6,4.8l-2.4,19.3h2.4l3.6-1.2c5.9-1.5,12-2.3,18.1-2.4
		c10.9,0,14.5,2.4,14.5,8.4c0,2.1-0.4,4.1-1.2,6C583.8,225.7,580.2,225.3,576.5,225.4z M566.9,265.2c-4.5,0.1-8.3-3.4-8.4-8
		c0-0.2,0-0.3,0-0.5c0-8.4,6-13.3,19.3-13.3h4.8C582.6,255.5,575.3,265.2,566.9,265.2z M651.3,219.3c2.6-8.7,5.8-17.1,9.7-25.3h-3.6
		c-7.2,0-10.9,3.6-18.1,14.5l2.4-13.3h-19.3l-13.3,88.1h21.7C638.1,227.8,640.5,219.3,651.3,219.3z M558.4,327.9
		c-24.1,0-38.6,20.5-38.6,51.9c0,21.7,8.4,39.8,31.4,39.8c22.9,0,38.6-15.7,38.6-51.9C589.8,344.8,578.9,327.9,558.4,327.9z
		 M552.4,397.9c-7.2,0-10.9-7.2-10.9-19.3c0-14.5,6-30.2,16.9-30.2c8.4,0,10.9,8.4,10.9,18.1C568.1,387.1,562,397.9,552.4,397.9z"/>
	<path class="st0" d="M478.8,370.2c0-24.1,10.9-41,26.6-41c6.5-0.1,12.9,2.1,18.1,6l3.6-22.9l-4.8-2.4l-8.4-2.4
		c-3.1-1.1-6.4-1.5-9.7-1.2c-27.8,0-45.9,26.6-45.9,65.2c0,29,13.3,47.1,36.2,47.1c6.2-0.1,12.3-1.4,18.1-3.6l3.6-24.1
		c-5.1,3.2-10.9,5.3-16.9,6C484.8,396.7,478.8,387.1,478.8,370.2z M390.7,327.9h-2.4c-7.2,0-10.9,3.6-16.9,14.5l1.2-13.3h-18.1
		l-12.1,88.1h20.5c7.2-53.1,9.7-62.8,19.3-62.8h1.2C384.2,345.3,386.7,336.3,390.7,327.9z M653.8,308.6l-4.8,31.4
		c-3.9-7.1-11.2-11.7-19.3-12.1c-18.1,0-33.8,24.1-33.8,54.3c0,21.7,9.7,36.2,25.3,36.2c7.6,0.1,14.8-3.5,19.3-9.7l-1.2,8.4h19.3
		l15.7-107.4h-20.5V308.6z M627.2,395.5c-7.2,0-10.9-6-10.9-16.9c0-16.9,6-29,15.7-29c7.2,0,10.9,6,10.9,16.9
		C644.1,383.5,638.1,395.5,627.2,395.5z M178.3,327.9c-20.5,0-36.2,21.7-36.2,51.9c0,25.3,12.1,39.8,35,39.8c7,0.1,14-1.1,20.5-3.6
		l3.6-21.7c-6.7,3.7-14.1,5.7-21.7,6c-12.1,0-18.1-4.8-18.1-15.7v-2.4h41c1.3-7.2,2.1-14.4,2.4-21.7
		C206,340,195.2,327.9,178.3,327.9z M186.7,362.9h-22.9c2.4-9.7,6-15.7,13.3-15.7c7.2,0,9.7,3.6,9.7,10.9V362.9z M422,327.9
		c-20.5,0-36.2,21.7-36.2,51.9c0,25.3,12.1,39.8,35,39.8c7,0.1,14-1.1,20.5-3.6l3.6-21.7c-6.7,3.7-14.1,5.7-21.7,6
		c-12.1,0-18.1-4.8-18.1-15.7v-2.4h41c1.3-7.2,2.1-14.4,2.4-21.7C449.8,340,438.9,327.9,422,327.9z M430.5,362.9h-22.9
		c2.4-9.7,6-15.7,13.3-15.7c7.2,0,9.7,3.6,9.7,10.9V362.9z M708.1,327.9c-20.5,0-36.2,21.7-36.2,51.9c0,25.3,12.1,39.8,35,39.8
		c7,0.1,14-1.1,20.5-3.6l3.6-21.7c-6.7,3.7-14.1,5.7-21.7,6c-12.1,0-18.1-4.8-18.1-15.7v-2.4h41c1.3-7.2,2.1-14.4,2.4-21.7
		C735.8,340,725,327.9,708.1,327.9z M716.5,362.9h-22.9c2.4-9.7,6-15.7,13.3-15.7c7.2,0,9.7,3.6,9.7,10.9L716.5,362.9z M120.3,327.9
		c6,0,11.8,1.6,16.9,4.8l4.8-21.7c-7.4-3.8-15.8-5.5-24.1-4.8c-16.9,0-35,8.4-35,37.4c0,31.4,30.2,24.1,30.2,42.2
		c0,10.9-9.7,13.3-16.9,13.3c-6.9,0-13.7-2.1-19.3-6L72.1,416c7.5,3.8,15.7,5.9,24.1,6c19.4,2,36.7-12.1,38.6-31.5
		c0.2-2.4,0.2-4.8,0-7.1c0-33.8-30.2-27.8-30.2-43.4C104.6,329.1,111.9,327.9,120.3,327.9z M210.8,378.6c0,21.7,10.9,39.8,29,39.8
		c6.3,0.5,12.5-0.8,18.1-3.6l3.6-22.9c-4,2.3-8.6,3.6-13.3,3.6c-8.4,0-14.5-8.4-14.5-19.3c0-18.1,8.4-27.8,19.3-27.8
		c4.8,0.3,9.4,2,13.3,4.8l4.8-20.5c-5.9-3.5-12.5-5.5-19.3-6C226.5,327.9,210.8,350.9,210.8,378.6z M323.1,329.1l-6,39.8
		c-1.2,13.3-7.2,24.1-15.7,24.1c-4.7,0-8.5-3.9-8.5-8.6c0-0.3,0-0.7,0.1-1c0-4.8,1.2-8.4,1.2-13.3l6-41h-21.7l-6,41
		c-0.9,6-1.3,12-1.2,18.1c0,16.9,7.2,30.2,19.3,30.2c10.3-0.3,19.6-6.4,24.1-15.7l-1.2,14.5h19.3c0.1-7.7,0.9-15.4,2.4-22.9l9.7-64
		h-21.7L323.1,329.1z M740.6,400.3h4.8v14.5h3.6v-14.5h4.8v-2.4h-13.3L740.6,400.3z M763.6,411.2h-1.2l-2.4-13.3h-4.8v16.9h3.6
		v-14.5l2.4,14.5h3.6l2.4-14.5v14.5h3.6v-16.9H766L763.6,411.2z"/>
</g>
</svg>
