<?xml version="1.0" encoding="utf-8"?>
<!-- Generator: Adobe Illustrator 28.2.0, SVG Export Plug-In . SVG Version: 6.00 Build 0)  -->
<svg version="1.0" id="katman_1" xmlns="http://www.w3.org/2000/svg" xmlns:xlink="http://www.w3.org/1999/xlink" x="0px" y="0px"
	 viewBox="0 0 841.9 595.3" style="enable-background:new 0 0 841.9 595.3;" xml:space="preserve">
<style type="text/css">
	.st0{fill:#A2A3A6;}
	.st1{opacity:0.68;fill:#A2A3A6;enable-background:new    ;}
	.st2{opacity:0.7;fill:#A2A3A6;enable-background:new    ;}
</style>
<g>
	<path class="st0" d="M620.4,247h-40.5c-2.9,0.1-5.3,2.2-5.8,5.1l-16.6,104.1c-0.1,1.9,1.3,3.5,3.2,3.6c0.1,0,0.3,0,0.4,0h21
		c1.9,0.1,3.5-1.3,3.6-3.2c0-0.1,0-0.3,0-0.4l4.3-29.6c0.5-2.8,2.9-4.9,5.8-5.1h13c26.7,0,41.9-13,46.2-38.3c2.4-9,0.5-18.6-5.1-26
		C642,249.7,631.3,246.1,620.4,247z M624.7,285.3c-2.2,14.5-13,14.5-23.8,14.5H595l4.3-27.5c0.2-1.8,1.8-3.1,3.6-2.9h2.9
		c7.2,0,14.5,0,18.1,4.3c2,3.7,2.3,8,0.9,11.9L624.7,285.3z M332.1,247h-40.6c-2.9,0.1-5.3,2.2-5.8,5.1L269,356.1
		c-0.1,1.9,1.3,3.5,3.2,3.6c0.1,0,0.3,0,0.4,0h19.5c2.9-0.1,5.3-2.2,5.8-5.1l4.3-28.2c0.5-2.8,2.9-4.9,5.8-5.1h13
		c26.7,0,41.9-13,46.2-38.3c2.4-9,0.5-18.6-5.1-26C353.9,250,343.1,246.4,332.1,247z M336.4,285.3c-2.2,14.5-13,14.5-23.8,14.5h-5.8
		l4.3-27.5c0.2-1.8,1.8-3.1,3.6-2.9h2.9c7.2,0,14.5,0,18.1,4.3c1.1,3.9,1.4,7.9,0.7,11.9V285.3z M452.7,285h-19.5
		c-1.6,0.3-3,1.4-3.6,2.9l-0.7,5.1l-1.4-2.2c-6.2-5.9-14.6-8.9-23.1-7.9c-22.2,0.3-40.7,17-43.4,39c-2.3,10.5,0.3,21.4,7.2,29.6
		c6.1,7,15.2,10.8,24.6,10.1c10,0.2,19.7-3.7,26.7-10.8l-0.7,5.1c-0.1,1.9,1.3,3.5,3.2,3.6c0.1,0,0.3,0,0.4,0h17.3
		c2.9-0.1,5.3-2.2,5.8-5.1l10.1-66.5C456.3,287.1,454.9,285,452.7,285z M426,322.5c-1.7,10.7-10.9,18.6-21.7,18.8
		c-4.8,0.1-9.5-1.7-13-5.1c-2.9-4-3.9-9-2.9-13.7c1.5-10.8,10.7-18.9,21.7-18.8c4.8-0.1,9.5,1.7,13,5.1
		C425.6,312.9,426.6,317.8,426,322.5z M741.1,285h-19.5c-1.6,0.3-3,1.4-3.6,2.9l-0.7,5.1l-1.4-2.2c-6.2-5.9-14.6-8.9-23.1-7.9
		c-22.2,0.3-40.7,17-43.4,39c-2.3,10.5,0.3,21.4,7.2,29.6c6.1,7,15.2,10.8,24.6,10.1c10,0.2,19.7-3.7,26.7-10.8l-0.7,5.1
		c-0.1,1.9,1.3,3.5,3.2,3.6c0.1,0,0.3,0,0.4,0h17.3c2.9-0.1,5.3-2.2,5.8-5.1l10.1-66.5C744.7,287.1,743.2,285,741.1,285L741.1,285z
		 M714.3,322.5c-1.7,10.7-10.9,18.6-21.7,18.8c-4.8,0.1-9.5-1.7-13-5.1c-2.9-4-3.9-9-2.9-13.7c1.5-10.8,10.7-18.9,21.7-18.8
		c4.8-0.1,9.5,1.7,13,5.1C714.2,312.8,715.3,317.8,714.3,322.5z M556.1,285h-19.5c-1.8-0.2-3.5,0.6-4.3,2.2l-26.7,39.7l-11.7-38.3
		c-0.7-2.3-2.7-4-5.1-4.3h-18.8c-1.8,0-3.1,1.5-3.1,3.2c0,0.4,0.1,0.7,0.2,1.1l21.7,62.9l-20.2,28.2c-1,1.5-0.6,3.5,0.9,4.5
		c0.6,0.4,1.3,0.6,2,0.5h19.5c1.8,0.2,3.5-0.6,4.3-2.2l65-93.2C560.1,287,558.4,285.2,556.1,285z M764.2,250.3l-16.6,105.5
		c-0.1,1.9,1.3,3.5,3.2,3.6c0.1,0,0.3,0,0.4,0h16.6c2.9-0.1,5.3-2.2,5.8-5.1l16.5-104.1c0.1-1.9-1.3-3.5-3.2-3.6c-0.1,0-0.3,0-0.4,0
		h-18.8C765.6,247,764.2,248.8,764.2,250.3z"/>
	<path class="st1" d="M190.3,253.2c2.8-11.1,0.1-22.9-7.2-31.8c-7.9-9.4-23.1-13.7-42.6-13.7H84.9c-3.8,0.1-7.1,2.8-7.9,6.5
		L53.8,360.8c-0.6,2.6,1.1,5.1,3.6,5.7c0.5,0.1,1,0.1,1.4,0.1h34l-2.2,15.2c-0.4,2.4,1.2,4.6,3.6,5c0.3,0,0.5,0.1,0.8,0.1h28.9
		c3.3,0.3,6.2-2.1,6.5-5.3c0-0.2,0-0.3,0-0.5v-1.4l5.8-34.7v-2.2c0.6-3.2,3.3-5.5,6.5-5.8h4.2c28.2,0,49.9-11.6,56.4-44.1
		c2.9-13.7,1.4-25.3-5.8-33.2C195.8,256.8,193.3,254.5,190.3,253.2"/>
	<path class="st2" d="M190.3,253.2c2.8-11.1,0.1-22.9-7.2-31.8c-7.9-9.4-23.1-13.7-42.6-13.7H84.9c-3.8,0.1-7.1,2.8-7.9,6.5
		L53.8,360.8c-0.6,2.6,1.1,5.1,3.6,5.7c0.5,0.1,1,0.1,1.4,0.1h34l8.7-54.6v1.4c0.7-3.8,4.1-6.6,7.9-6.5h16.6
		c31.8,0,57.1-13,64.3-50.6c-0.7-1.1-0.7-2.5,0-3.6"/>
	<path class="st0" d="M110.8,253.2c0.6-2.1,1.9-3.8,3.6-5.1c0.8-0.6,1.9-0.8,2.9-0.7h43.4c4.8-0.1,9.7,0.1,14.5,0.7
		c1.4,0,2.2,0.7,3.6,0.7c1.4,0,2.2,0.7,3.6,0.7s1.4,0,1.4,0.7c2.1,0.5,4.1,1.5,5.8,2.9c2.8-11.1,0.1-22.9-7.2-31.8
		c-7.9-9.4-23.1-13.7-42.6-13.7H84.2c-3.8,0.1-7.1,2.8-7.9,6.5L53,360.8c-0.6,2.6,1.1,5.1,3.6,5.7c0.5,0.1,1,0.1,1.4,0.1h34
		l8.8-54.6L110.8,253.2z"/>
</g>
</svg>
