<?xml version="1.0" encoding="UTF-8" standalone="no"?>
<svg
   xmlns:dc="http://purl.org/dc/elements/1.1/"
   xmlns:cc="http://creativecommons.org/ns#"
   xmlns:rdf="http://www.w3.org/1999/02/22-rdf-syntax-ns#"
   xmlns:svg="http://www.w3.org/2000/svg"
   xmlns="http://www.w3.org/2000/svg"
   xmlns:sodipodi="http://sodipodi.sourceforge.net/DTD/sodipodi-0.dtd"
   xmlns:inkscape="http://www.inkscape.org/namespaces/inkscape"
   version="1.0"
   width="2000.000000pt"
   height="474.000000pt"
   viewBox="0 0 2000.000000 474.000000"
   preserveAspectRatio="xMidYMid meet"
   id="svg2"
   inkscape:version="0.48.4 r9939"
   sodipodi:docname="ddd.svg">
  <defs
     id="defs74" />
  <sodipodi:namedview
     pagecolor="#ffffff"
     bordercolor="#666666"
     borderopacity="1"
     objecttolerance="10"
     gridtolerance="10"
     guidetolerance="10"
     inkscape:pageopacity="0"
     inkscape:pageshadow="2"
     inkscape:window-width="1600"
     inkscape:window-height="844"
     id="namedview72"
     showgrid="false"
     inkscape:zoom="0.12020815"
     inkscape:cx="1250"
     inkscape:cy="296.25"
     inkscape:window-x="-4"
     inkscape:window-y="-4"
     inkscape:window-maximized="1"
     inkscape:current-layer="svg2" />
  <metadata
     id="metadata4">
Created by potrace 1.11, written by Peter Selinger 2001-2013
<rdf:RDF>
  <cc:Work
     rdf:about="">
    <dc:format>image/svg+xml</dc:format>
    <dc:type
       rdf:resource="http://purl.org/dc/dcmitype/StillImage" />
  </cc:Work>
</rdf:RDF>
</metadata>
  <g
     transform="translate(0.000000,474.000000) scale(0.100000,-0.100000)"
     fill="#000000"
     stroke="none"
     id="g6"
     style="fill:#808080">
    <path
       d="M2013 4634 c-25 -11 -12 -43 37 -100 83 -95 166 -278 214 -469 77 -310 69 -788 -20 -1139 -81 -324 -247 -571 -451 -673 -147 -74 -280 -80 -408 -19 -74 34 -176 121 -227 190 l-28 40 105 99 c139 131 249 278 330 442 75 151 109 262 126 408 26 232 -40 421 -166 478 -56 26 -168 25 -248 -2 -256 -86 -454 -385 -511 -772 -30 -201 -11 -381 58 -555 l33 -83 -26 -13 c-46 -23 -132 -39 -183 -33 -209 25 -342 227 -367 555 -15 191 6 359 66 547 84 263 243 530 474 799 62 72 63 100 4 104 -32 2 -54 -6 -115 -42 -263 -155 -518 -493 -630 -834 -114 -351 -104 -663 31 -940 42 -87 63 -117 127 -181 123 -123 239 -167 417 -159 76 4 122 12 189 35 l89 30 86 -87 c165 -168 363 -243 588 -226 475 38 854 499 949 1156 23 162 15 502 -15 643 -32 144 -67 250 -121 362 -60 124 -110 200 -198 300 -93 107 -167 156 -209 139z m-631 -894 c79 -62 85 -226 17 -495 -60 -239 -156 -432 -285 -573 l-61 -67 -21 56 c-92 248 -74 632 43 874 39 82 119 176 174 205 47 25 102 25 133 0z"
       id="path8"
       style="fill:#808080" />
    <path
       d="M5115 4540 c-159 -20 -265 -69 -265 -124 0 -61 88 -132 178 -143 81 -9 82 27 1 71 -103 57 -55 70 236 62 244 -6 444 -27 665 -72 819 -164 1511 -579 1736 -1040 94 -193 96 -356 7 -526 -110 -210 -371 -355 -716 -398 -170 -22 -533 -2 -659 36 -17 5 -18 31 -18 365 0 320 2 360 16 366 48 18 690 -29 713 -53 3 -3 -20 -28 -52 -55 -62 -55 -70 -75 -34 -88 76 -29 230 63 272 162 14 35 14 40 -1 66 -37 62 -165 125 -337 166 -126 30 -249 45 -437 53 l-145 7 -7 85 c-15 184 -51 354 -82 379 -42 35 -92 -136 -112 -386 -4 -48 -12 -91 -18 -95 -6 -4 -25 -8 -43 -8 -51 0 -236 -38 -320 -66 -221 -74 -383 -219 -383 -344 0 -52 26 -146 58 -204 33 -63 166 -199 246 -251 84 -55 227 -127 328 -166 92 -36 97 -42 98 -109 0 -49 26 -163 45 -203 9 -19 27 -39 40 -45 59 -27 104 34 128 173 8 47 19 79 25 78 238 -51 286 -57 527 -57 257 0 347 10 532 59 321 85 545 245 644 461 91 199 73 477 -46 701 -106 200 -276 366 -580 566 -444 292 -997 487 -1595 562 -145 19 -543 28 -645 15z m928 -1435 c-1 -11 -5 -156 -9 -322 l-7 -302 -41 16 c-97 37 -276 128 -353 180 -102 68 -190 160 -199 207 -22 119 146 198 501 235 102 11 110 10 108 -14z"
       id="path10"
       style="fill:#808080" />
    <path
       d="M8495 4464 c-112 -24 -245 -94 -319 -168 -145 -145 -179 -338 -79 -456 l24 -29 -21 -59 c-25 -68 -24 -115 2 -120 11 -2 41 18 75 50 l58 54 50 -17 c123 -41 310 -33 479 21 201 65 391 234 426 378 30 127 -65 232 -211 232 -32 0 -38 4 -50 31 -31 77 -256 120 -434 83z m165 -181 c0 -5 -20 -16 -44 -26 -71 -29 -216 -130 -298 -206 -41 -39 -78 -68 -82 -64 -12 12 -5 68 13 109 39 85 136 153 255 179 68 15 156 19 156 8z m386 -98 c48 -73 -79 -227 -252 -306 -126 -57 -304 -74 -407 -37 l-39 14 54 45 c104 89 217 167 318 218 131 68 193 89 257 90 46 1 55 -2 69 -24z"
       id="path12"
       style="fill:#808080" />
    <path
       d="M4305 3546 c-45 -20 -93 -72 -100 -110 -8 -38 14 -98 48 -134 52 -56 185 -111 322 -133 48 -7 74 -16 71 -23 -104 -251 -147 -450 -150 -686 -1 -145 5 -172 61 -253 32 -46 90 -84 105 -69 6 6 19 98 29 204 31 324 65 523 125 719 l26 86 77 7 c110 9 183 30 280 78 101 51 141 95 148 162 5 41 3 48 -28 79 -27 27 -47 36 -99 45 -139 25 -299 -28 -410 -134 l-57 -54 -84 10 c-103 13 -204 42 -249 73 -42 27 -60 69 -42 97 30 48 -6 65 -73 36z m885 -111 c10 -12 7 -20 -17 -44 -34 -33 -80 -49 -173 -58 l-65 -6 30 33 c66 70 193 113 225 75z"
       id="path14"
       style="fill:#808080" />
    <path
       d="M10808 3554 c-3 -3 3 -27 13 -53 40 -107 53 -223 54 -481 0 -312 -29 -494 -74 -465 -21 12 -116 146 -298 416 -184 274 -238 339 -277 339 -99 0 -196 -379 -196 -768 0 -155 7 -179 73 -239 50 -46 80 -54 96 -25 9 17 22 159 44 487 10 137 15 170 27 170 14 0 52 -52 263 -361 131 -191 216 -298 266 -331 42 -28 90 -29 123 -4 81 64 138 352 138 691 0 232 -41 408 -125 534 -48 73 -105 113 -127 90z"
       id="path16"
       style="fill:#808080" />
    <path
       d="M3162 3533 c-74 -36 -171 -179 -317 -468 -51 -99 -102 -204 -114 -232 -12 -29 -28 -53 -35 -53 -7 0 -35 11 -61 25 -26 14 -50 23 -53 20 -4 -3 -6 -23 -5 -45 2 -42 24 -92 55 -126 19 -22 19 -22 -12 -149 -34 -136 -35 -189 -4 -264 29 -70 84 -102 113 -67 7 8 40 98 74 200 l62 186 160 4 c88 2 183 7 211 11 l51 7 18 -93 c23 -124 48 -187 90 -236 41 -48 92 -71 102 -47 10 27 -4 139 -52 424 -125 742 -144 834 -191 889 -29 35 -45 37 -92 14z m7 -295 c5 -13 25 -124 46 -247 32 -187 36 -224 24 -232 -20 -13 -299 -12 -299 1 0 17 124 339 163 423 37 80 52 92 66 55z"
       id="path18"
       style="fill:#808080" />
    <path
       d="M12520 3490 c-49 -52 -108 -148 -179 -290 -80 -161 -128 -301 -143 -416 -22 -158 20 -326 100 -411 l31 -33 -60 -149 c-90 -226 -130 -374 -136 -503 -7 -128 6 -185 52 -234 43 -45 77 -46 98 -1 8 17 36 113 60 212 49 193 123 447 157 539 l21 56 85 0 c94 0 176 22 247 67 207 129 390 429 442 727 30 173 16 285 -44 349 -75 80 -181 56 -309 -71 -149 -147 -310 -382 -457 -665 -78 -150 -80 -151 -111 -66 -48 132 8 404 151 734 70 162 70 162 45 175 -18 10 -25 7 -50 -20z m626 -275 c25 -38 13 -134 -34 -270 -54 -158 -110 -253 -213 -357 -94 -96 -160 -134 -250 -145 l-52 -6 7 29 c4 16 56 128 116 249 206 417 361 598 426 500z"
       id="path20"
       style="fill:#808080" />
    <path
       d="M3932 3494 c-79 -55 -222 -535 -252 -849 -18 -180 0 -273 66 -339 42 -42 84 -56 167 -56 114 0 250 43 331 105 40 30 92 124 83 148 -8 22 -22 22 -168 -8 -68 -14 -157 -29 -196 -33 l-73 -8 0 95 c0 117 18 289 67 649 36 269 37 299 7 309 -5 2 -19 -4 -32 -13z"
       id="path22"
       style="fill:#808080" />
    <path
       d="M8351 3434 c-26 -34 -55 -124 -80 -256 -36 -193 -46 -300 -46 -523 0 -201 2 -226 23 -292 34 -110 84 -138 139 -77 47 51 75 225 93 564 15 307 -9 524 -66 585 -29 31 -38 31 -63 -1z"
       id="path24"
       style="fill:#808080" />
    <path
       d="M11632 3440 c-98 -13 -232 -45 -292 -71 -92 -40 -72 -92 44 -112 54 -9 65 -14 60 -27 -3 -8 -25 -89 -48 -180 l-42 -165 -44 -7 c-78 -13 -90 -18 -90 -36 0 -22 32 -53 78 -76 28 -15 33 -21 28 -44 -32 -157 -35 -317 -7 -378 37 -81 109 -109 255 -101 117 6 200 29 333 93 142 68 200 131 141 153 -14 5 -99 1 -208 -10 -257 -25 -266 -25 -300 9 -33 34 -45 90 -35 177 l6 62 127 7 c70 3 144 11 165 17 69 19 150 112 134 153 -9 23 -107 30 -254 17 -75 -7 -137 -10 -139 -8 -3 2 45 194 74 292 l8 30 220 7 c226 7 271 13 287 39 25 39 -38 131 -101 149 -50 15 -310 21 -400 10z"
       id="path26"
       style="fill:#808080" />
    <path
       d="M9229 3409 c-256 -24 -492 -127 -549 -239 -25 -49 -25 -86 0 -127 48 -79 145 -117 512 -203 364 -85 447 -124 448 -207 1 -93 -177 -176 -405 -190 -111 -6 -279 9 -360 32 -55 16 -92 46 -80 64 4 7 82 11 228 11 122 0 242 5 267 11 115 26 103 95 -24 135 -78 25 -310 30 -416 10 -229 -43 -294 -154 -160 -269 123 -105 399 -178 615 -163 258 18 474 125 541 269 41 88 28 163 -42 237 -80 86 -215 137 -533 205 -288 61 -402 105 -385 149 18 48 179 75 489 82 271 6 347 15 423 49 47 22 53 28 50 51 -7 58 -132 91 -368 98 -85 3 -198 1 -251 -5z"
       id="path28"
       style="fill:#808080" />
    <path
       d="M14010 3373 c-98 -16 -175 -69 -205 -140 -8 -19 -15 -63 -15 -98 0 -93 40 -166 138 -253 43 -37 109 -99 148 -137 60 -60 73 -78 83 -122 27 -113 -32 -205 -146 -226 -46 -9 -129 9 -165 34 -34 25 -67 90 -68 132 0 15 -4 27 -9 27 -10 0 -23 -164 -14 -186 3 -8 20 -22 37 -31 39 -21 204 -30 263 -14 67 18 133 69 167 131 27 49 31 64 31 135 0 70 -4 87 -29 132 -30 55 -98 123 -233 234 -118 98 -145 165 -103 257 15 34 29 47 66 64 55 24 139 21 192 -6 33 -17 62 -61 62 -95 0 -11 4 -22 9 -25 11 -7 25 154 14 164 -8 8 -165 31 -187 29 -6 -1 -22 -4 -36 -6z"
       id="path30"
       style="fill:#808080" />
    <path
       d="M18680 3369 c-182 -27 -332 -149 -401 -326 -27 -70 -37 -222 -20 -304 7 -31 25 -84 42 -119 84 -178 237 -270 448 -270 110 1 162 10 237 46 252 119 366 454 243 714 -86 183 -321 294 -549 259z m227 -73 c154 -70 243 -235 243 -453 0 -204 -67 -337 -205 -411 -45 -25 -60 -27 -160 -27 -106 0 -112 1 -172 34 -163 88 -255 281 -240 501 11 158 72 275 176 337 70 42 117 53 216 49 62 -2 94 -9 142 -30z"
       id="path32"
       style="fill:#808080" />
    <path
       d="M19730 3369 c-68 -13 -129 -49 -164 -97 -27 -39 -31 -53 -35 -123 -4 -108 17 -150 127 -254 212 -199 228 -217 241 -271 35 -145 -76 -253 -231 -224 -88 17 -148 81 -148 160 0 16 -4 30 -9 30 -9 0 -22 -166 -14 -187 3 -8 20 -21 37 -30 39 -21 204 -30 263 -14 67 18 133 69 167 131 28 49 31 64 31 135 0 124 -43 188 -222 332 -151 122 -187 192 -144 287 17 39 29 50 67 68 110 48 254 -9 254 -102 0 -10 4 -21 9 -24 11 -7 25 154 14 164 -7 7 -163 31 -187 29 -6 -1 -31 -5 -56 -10z"
       id="path34"
       style="fill:#808080" />
    <path
       d="M14436 3352 c-14 -50 -28 -131 -25 -141 3 -7 16 5 29 26 34 51 70 62 218 62 l124 1 -4 -427 c-3 -291 -8 -437 -16 -455 -8 -20 -21 -29 -47 -34 -67 -12 -23 -19 136 -20 155 -2 204 7 115 20 -24 4 -50 14 -58 23 -10 13 -14 108 -16 456 l-3 440 131 -5 c146 -5 176 -17 196 -77 16 -48 24 -26 24 65 l0 83 -37 -7 c-51 -9 -621 -9 -700 0 -54 7 -62 5 -67 -10z"
       id="path36"
       style="fill:#808080" />
    <path
       d="M15330 3351 c0 -4 19 -11 42 -17 67 -14 68 -19 68 -344 0 -206 4 -303 14 -351 42 -196 163 -289 377 -289 192 0 320 98 367 280 10 39 16 144 19 360 3 168 9 313 14 322 5 9 25 20 44 24 70 13 32 20 -105 21 -138 0 -186 -9 -112 -21 75 -12 74 -3 70 -377 -4 -373 -7 -389 -75 -469 -53 -62 -120 -90 -213 -90 -89 0 -138 20 -192 76 -55 57 -77 117 -89 241 -14 137 -7 559 9 590 8 14 26 25 48 29 19 3 32 9 29 13 -9 8 -315 10 -315 2z"
       id="path38"
       style="fill:#808080" />
    <path
       d="M16495 3350 c-2 -4 14 -10 37 -13 53 -7 65 -24 73 -102 11 -101 0 -786 -13 -817 -8 -20 -21 -29 -47 -34 -20 -3 -33 -9 -30 -12 6 -6 278 -16 435 -16 173 0 278 36 381 131 108 100 159 226 159 392 0 189 -87 338 -244 414 -107 52 -157 59 -464 62 -155 1 -284 -1 -287 -5z m501 -51 c224 -41 374 -223 377 -459 3 -220 -92 -366 -275 -421 -58 -18 -88 -21 -182 -17 -125 5 -174 23 -187 68 -4 14 -7 206 -8 427 -1 312 2 402 12 406 23 10 203 7 263 -4z"
       id="path40"
       style="fill:#808080" />
    <path
       d="M17704 3351 c-3 -3 12 -10 33 -16 64 -18 64 -13 61 -480 -3 -456 -4 -461 -59 -472 -63 -12 -22 -19 131 -20 160 0 213 9 120 21 -37 5 -53 12 -62 29 -10 17 -14 125 -16 442 -3 461 -3 462 56 479 17 5 32 12 32 16 0 7 -288 9 -296 1z"
       id="path42"
       style="fill:#808080" />
    <path
       d="M3270 1028 c0 -1 -24 -216 -53 -475 -58 -513 -58 -513 -119 -513 -15 0 -28 -4 -28 -10 0 -6 52 -10 135 -10 83 0 135 4 135 10 0 6 -11 10 -24 10 -13 0 -34 8 -47 19 l-23 19 29 341 c16 188 32 338 36 334 4 -5 34 -66 67 -138 33 -71 112 -235 176 -364 100 -198 120 -232 131 -220 8 8 89 174 180 369 92 195 171 359 176 365 6 5 9 2 9 -9 0 -10 14 -165 31 -345 17 -179 28 -338 25 -352 -5 -26 -5 -26 77 -32 114 -9 185 -9 191 2 3 4 -17 11 -45 14 -57 7 -73 17 -95 59 -9 18 -32 189 -64 474 -27 245 -52 449 -55 452 -12 12 -28 -20 -220 -431 -105 -223 -192 -403 -194 -401 -3 3 -95 190 -206 416 -110 226 -206 413 -213 416 -6 2 -12 2 -12 0z"
       id="path44"
       style="fill:#808080" />
    <path
       d="M4811 1015 c-309 -87 -460 -447 -310 -743 89 -178 239 -267 449 -266 160 1 271 46 371 151 104 109 149 223 149 377 0 162 -44 272 -147 366 -61 56 -89 73 -172 102 -76 27 -264 34 -340 13z m211 -36 c145 -31 251 -134 301 -294 31 -99 30 -282 -2 -373 -40 -116 -99 -184 -196 -228 -221 -99 -471 44 -540 311 -19 73 -20 242 -1 310 55 206 233 317 438 274z"
       id="path46"
       style="fill:#808080" />
    <path
       d="M5575 950 c-10 -44 -16 -83 -13 -86 3 -3 16 11 28 31 12 20 34 41 49 47 14 5 86 12 159 15 l133 6 -3 -434 c-3 -396 -5 -437 -21 -462 -11 -17 -26 -27 -42 -27 -14 0 -25 -4 -25 -10 0 -6 60 -10 160 -10 100 0 160 4 160 10 0 6 -15 10 -34 10 -19 0 -44 9 -57 19 l-24 19 -3 441 -3 441 68 0 c37 -1 102 -5 143 -10 62 -7 78 -12 97 -35 13 -14 23 -35 23 -46 0 -10 5 -19 10 -19 6 0 10 34 10 83 l0 82 -357 0 c-197 0 -376 3 -399 7 l-41 8 -18 -80z"
       id="path48"
       style="fill:#808080" />
    <path
       d="M7493 1015 c-175 -49 -310 -190 -357 -372 -57 -218 41 -467 225 -572 199 -114 464 -82 629 74 163 157 209 430 105 636 -51 99 -134 171 -252 216 -86 32 -266 42 -350 18z m271 -55 c78 -30 164 -110 203 -192 43 -88 57 -157 56 -274 -1 -246 -106 -396 -300 -434 -109 -21 -234 16 -323 96 -182 165 -211 539 -54 713 100 111 266 147 418 91z"
       id="path50"
       style="fill:#808080" />
    <path
       d="M8428 1028 c-1 -2 -5 -218 -8 -481 -5 -459 -6 -479 -24 -493 -11 -8 -32 -14 -48 -14 -15 0 -28 -4 -28 -10 0 -6 56 -10 149 -10 89 0 152 4 156 10 4 6 -8 10 -28 10 -46 0 -76 26 -87 74 -5 21 -12 190 -15 375 l-7 336 53 -60 c171 -190 398 -433 548 -586 138 -140 173 -171 181 -159 6 9 10 185 10 470 0 502 -2 489 62 506 28 7 21 9 -45 12 -43 1 -110 2 -150 0 -71 -3 -70 -7 8 -23 16 -3 30 -16 36 -31 8 -22 32 -743 25 -751 -2 -2 -45 43 -96 100 -276 302 -674 727 -681 727 -5 0 -10 -1 -11 -2z"
       id="path52"
       style="fill:#808080" />
    <path
       d="M11864 1015 c-228 -50 -384 -249 -384 -490 1 -250 152 -441 397 -502 94 -23 316 -23 396 1 66 19 69 23 87 138 14 84 9 121 -9 73 -6 -16 -19 -47 -28 -68 -60 -138 -379 -136 -552 4 -52 41 -117 135 -144 207 -19 48 -22 77 -22 187 1 111 4 138 23 187 59 148 166 217 349 226 217 10 336 -53 358 -190 11 -69 25 -39 27 57 1 52 2 107 2 123 1 25 -3 27 -49 34 -27 3 -81 11 -120 17 -94 14 -256 12 -331 -4z"
       id="path54"
       style="fill:#808080" />
    <path
       d="M12515 1017 c-6 -16 -35 -140 -35 -149 0 -19 17 -5 34 26 10 18 29 39 44 45 14 7 85 15 159 18 l133 6 0 -419 c0 -244 -4 -433 -10 -453 -11 -39 -24 -51 -57 -51 -13 0 -23 -4 -23 -10 0 -6 62 -10 165 -10 157 0 218 11 119 23 -25 2 -50 9 -56 15 -20 20 -27 157 -28 526 l0 379 123 -6 c167 -9 207 -25 207 -86 0 -12 5 -21 10 -21 6 0 10 34 10 83 l0 82 -362 0 c-200 0 -378 3 -396 7 -23 5 -34 4 -37 -5z"
       id="path56"
       style="fill:#808080" />
    <path
       d="M16611 1013 c-99 -35 -160 -136 -148 -247 10 -99 46 -147 250 -329 95 -86 114 -114 123 -181 17 -122 -81 -218 -207 -203 -102 12 -160 64 -174 153 -11 73 -25 34 -25 -69 l0 -88 43 -19 c89 -39 229 -35 318 10 90 46 144 147 137 257 -7 114 -49 176 -218 314 -111 90 -144 128 -159 185 -22 81 26 162 108 184 85 23 204 -20 217 -78 20 -92 34 -83 34 22 l0 84 -50 11 c-72 15 -197 12 -249 -6z"
       id="path58"
       style="fill:#808080" />
    <path
       d="M15845 1010 c-180 -3 -247 -8 -217 -13 74 -15 72 0 72 -462 0 -238 -4 -424 -10 -444 -11 -39 -24 -51 -57 -51 -13 0 -23 -4 -23 -10 0 -6 95 -10 265 -10 l265 0 9 23 c5 13 12 54 16 92 8 75 -3 80 -25 12 -19 -60 -47 -72 -172 -72 -159 0 -153 -9 -153 248 l0 202 110 -4 c61 -2 118 -7 127 -12 10 -5 20 -22 24 -37 13 -60 18 -53 29 38 7 52 11 97 9 99 -2 2 -12 -3 -21 -11 -14 -12 -48 -17 -148 -19 l-130 -4 -3 193 -2 192 105 0 c126 0 171 -14 180 -57 16 -71 25 -55 38 65 5 45 4 52 -11 50 -9 -1 -134 -5 -277 -8z"
       id="path60"
       style="fill:#808080" />
    <path
       d="M6610 1000 c8 -5 22 -10 31 -10 9 0 23 -8 32 -18 15 -17 17 -62 17 -440 0 -477 -2 -491 -67 -492 -13 0 -23 -4 -23 -10 0 -6 62 -10 165 -10 103 0 165 4 165 10 0 6 -16 10 -35 10 -24 0 -44 8 -59 23 -22 23 -23 30 -30 270 -4 135 -4 332 0 437 7 198 12 220 52 220 9 0 24 5 32 10 10 6 -36 10 -140 10 -104 0 -150 -4 -140 -10z"
       id="path62"
       style="fill:#808080" />
    <path
       d="M10095 1000 c11 -5 30 -9 42 -9 52 -2 53 -13 53 -456 0 -238 -4 -424 -10 -444 -11 -39 -24 -51 -57 -51 -13 0 -23 -4 -23 -10 0 -13 316 -14 324 -1 3 5 -15 11 -41 14 -28 3 -52 12 -59 22 -21 29 -25 125 -22 520 l3 380 65 3 c84 4 139 -17 185 -71 60 -70 82 -187 49 -265 -31 -75 -101 -126 -193 -138 -61 -8 -68 -24 -9 -24 168 0 304 121 316 279 6 88 -9 133 -63 187 -66 66 -107 74 -364 73 -130 0 -208 -4 -196 -9z"
       id="path64"
       style="fill:#808080" />
    <path
       d="M10955 1000 c3 -5 17 -10 30 -10 54 0 55 -8 55 -462 0 -473 -2 -487 -67 -488 -13 0 -23 -4 -23 -10 0 -6 62 -10 165 -10 103 0 165 4 165 10 0 6 -16 10 -35 10 -24 0 -44 8 -59 23 -22 22 -24 35 -31 170 -9 170 -2 704 10 729 4 10 25 23 46 28 21 6 39 13 39 15 0 3 -68 5 -151 5 -97 0 -148 -4 -144 -10z"
       id="path66"
       style="fill:#808080" />
    <path
       d="M13473 993 c35 -10 51 -21 58 -39 5 -14 9 -148 9 -297 0 -150 5 -301 11 -337 14 -91 53 -172 106 -221 149 -137 424 -126 558 24 87 95 105 195 105 566 0 283 0 285 61 307 29 11 13 12 -116 12 -131 0 -145 -1 -108 -11 75 -21 74 -19 80 -258 5 -212 -6 -418 -27 -491 -20 -69 -70 -130 -134 -163 -52 -26 -70 -30 -135 -29 -144 2 -238 83 -270 232 -13 61 -15 660 -3 679 4 7 26 19 47 27 38 14 30 15 -125 14 -160 0 -164 0 -117 -15z"
       id="path68"
       style="fill:#808080" />
    <path
       d="M14606 997 c79 -23 74 10 74 -463 0 -479 -2 -493 -67 -494 -13 0 -23 -4 -23 -10 0 -13 316 -14 324 -1 3 5 -15 11 -40 14 -25 2 -50 9 -56 15 -18 18 -27 94 -28 240 l0 142 93 0 92 -1 95 -130 c112 -154 190 -243 234 -266 36 -19 256 -33 256 -16 0 6 -19 13 -43 15 -98 11 -150 56 -334 286 l-114 143 41 47 c156 177 150 377 -15 461 -49 26 -54 26 -290 28 -199 1 -233 0 -199 -10z m380 -46 c50 -23 97 -78 114 -133 21 -73 15 -182 -14 -242 -36 -73 -70 -91 -172 -90 -132 2 -124 -14 -124 248 0 122 3 226 7 229 14 15 148 6 189 -12z"
       id="path70"
       style="fill:#808080" />
  </g>
</svg>
